<?xml version="1.0" encoding="utf-8"?>
<!DOCTYPE svg PUBLIC "-//W3C//DTD SVG 1.1//EN" "http://www.w3.org/Graphics/SVG/1.1/DTD/svg11.dtd">
<svg xmlns="http://www.w3.org/2000/svg" xmlns:xlink="http://www.w3.org/1999/xlink" version="1.1" id="Слой_1" x="0px" y="0px" viewBox="0 0 128 128" enable-background="new 0 0 128 128" xml:space="preserve">
<path fill="#F8F7FB" d="M119.2,53.9c1.1-4.6,1.4-9.5,0.5-14.6C117,22.2,102.7,9,85.4,7.8c-7.2-0.5-13.9,1-19.8,4.1  c-2.3,1.2-4.9,1.4-7.4,0.7c-4.9-1.4-10.1-2-15.5-1.5C21.3,13,4.3,30.7,3.5,52.2C2.7,73.7,17.8,91.8,37.9,95.8  c2.7,0.5,5.1,2.2,6.6,4.6c7.9,12.3,21.8,20.4,37.7,19.8c22-0.8,40-18.5,41.2-40.4c0.4-7.1-0.9-13.8-3.6-19.8  C119,58.1,118.8,56,119.2,53.9z"/>
<g>
	<path opacity="0.1" d="M54.5,100.4c-1.5-2.4-3.9-4-6.6-4.6c-20.1-4-35.2-22.1-34.4-43.6c0.8-21,17.1-38.5,37.8-40.9   c-2.8-0.3-5.7-0.4-8.7-0.1C21.3,13,4.3,30.7,3.5,52.2C2.7,73.7,17.8,91.8,37.9,95.8c2.7,0.5,5.1,2.2,6.6,4.6   c7.9,12.3,21.8,20.4,37.7,19.8c1.2,0,2.3-0.1,3.5-0.3C72.6,118.4,61.3,111,54.5,100.4z"/>
	<path fill="#F8F7FB" d="M75.6,11.9c3.7-1.9,7.8-3.3,12.2-3.8C87,8,86.2,7.9,85.4,7.8c-7.2-0.5-13.9,1-19.8,4.1c0,0-0.1,0-0.1,0   c0.9,0.2,1.8,0.4,2.7,0.7C70.6,13.4,73.3,13.1,75.6,11.9z"/>
	<path fill="#F8F7FB" d="M65.5,12c-4.1-0.9-8.4-1.2-12.8-0.9c-0.5,0-0.9,0.1-1.4,0.1c2.3,0.3,4.6,0.7,6.8,1.4   C60.6,13.4,63.2,13.1,65.5,12z"/>
</g>
<circle fill="#FDB915" cx="82.8" cy="62.4" r="22.5"/>
<g opacity="0.1">
	<path d="M70.3,62.4c0-10.7,7.5-19.7,17.5-21.9c-1.6-0.4-3.3-0.6-5-0.6c-12.4,0-22.5,10.1-22.5,22.5c0,12.4,10.1,22.5,22.5,22.5   c1.7,0,3.4-0.2,5-0.6C77.8,82.1,70.3,73.1,70.3,62.4z"/>
</g>
<path fill="#FDB915" d="M93.3,62.4c0,6.9-5.6,12.5-12.5,12.5"/>
<path fill="#62355C" d="M81.1,122.8C81.1,122.8,81.1,122.8,81.1,122.8c-15.6,0-29.8-7.9-38.2-21c-1.2-1.8-2.9-3-5-3.4  C16,93.9,0.7,74.5,1.5,52.1C2.4,29.3,20.2,10.6,43,8.6c5.5-0.5,11.1,0.1,16.4,1.6c1.8,0.5,3.9,0.3,5.6-0.5  c6.5-3.4,13.7-4.9,21.1-4.4c18.3,1.3,33.8,15.4,36.7,33.5c0.8,5.2,0.6,10.5-0.6,15.6c-0.4,1.5-0.2,3.1,0.4,4.5  c2.9,6.6,4.2,13.6,3.8,20.9c-1.3,23.2-20.4,42-43.6,42.8C82.2,122.7,81.7,122.8,81.1,122.8z M46.9,13.5c-1.1,0-2.3,0-3.4,0.1  C23.1,15.4,7.3,32,6.5,52.3C5.8,72.2,19.4,89.5,38.9,93.4c3.4,0.7,6.4,2.7,8.2,5.7c7.5,11.7,20.2,18.7,34,18.7c0,0,0,0,0,0  c0.5,0,1,0,1.5,0c20.6-0.7,37.7-17.5,38.8-38.1c0.4-6.5-0.8-12.7-3.4-18.6c-1.1-2.4-1.3-5.2-0.7-7.7c1.1-4.5,1.2-9.1,0.5-13.6  c-2.6-15.9-16.1-28.3-32.1-29.4c-6.5-0.4-12.8,0.9-18.5,3.8c-2.8,1.5-6.2,1.8-9.3,0.9C54.4,14,50.6,13.5,46.9,13.5z"/>
<path fill="#62355C" d="M83.3,87.4c-13.8,0-25-11.2-25-25s11.2-25,25-25s25,11.2,25,25S97.1,87.4,83.3,87.4z M83.3,42.4  c-11,0-20,9-20,20s9,20,20,20s20-9,20-20S94.3,42.4,83.3,42.4z"/>
<path fill="#62355C" d="M83.3,77.4c-1.4,0-2.5-1.1-2.5-2.5s1.1-2.5,2.5-2.5c5.5,0,10-4.5,10-10c0-1.4,1.1-2.5,2.5-2.5  s2.5,1.1,2.5,2.5C98.3,70.7,91.6,77.4,83.3,77.4z"/>

	
	<metadata>
		<rdf:RDF xmlns:rdf="http://www.w3.org/1999/02/22-rdf-syntax-ns#" xmlns:rdfs="http://www.w3.org/2000/01/rdf-schema#" xmlns:dc="http://purl.org/dc/elements/1.1/">
			<rdf:Description about="https://iconscout.com/legal#licenses" dc:title="Egg, Breakfast, Fried, Omelette, Scramble, Food, Nonveg" dc:description="Egg, Breakfast, Fried, Omelette, Scramble, Food, Nonveg" dc:publisher="Iconscout" dc:date="2016-12-14" dc:format="image/svg+xml" dc:language="en">
				<dc:creator>
					<rdf:Bag>
						<rdf:li>Sergei Kokota</rdf:li>
					</rdf:Bag>
				</dc:creator>
			</rdf:Description>
		</rdf:RDF>
    </metadata></svg>
